# xmcd CD database file
#
# Track frame offsets:
#	150
#	28687
#	50620
#	67092
#	91612
#	114790
#	139330
#	163135
#
# Disc length: 2533 seconds
#
# Revision: 0
# Processed by: cddbd v1.5PL3 Copyright (c) Steve Scherf et al.
# Submitted via: CDex 1.50
#
DISCID=6809e308
DTITLE=渡辺香津美 - MOBO SPECIAL
DYEAR=1985
DGENRE=Jazz
TTITLE0=Shang-hi (Mobo #1)
TTITLE1=Voyage
TTITLE2=Walk, Don't Run
TTITLE3=Riboji
TTITLE4=Racoon Roll
TTITLE5=Tsuru-kame Hinatango
TTITLE6=Sat-chan
TTITLE7=American Short Hair
EXTD=YEAR: 1985
EXTT0=
EXTT1=
EXTT2=
EXTT3=
EXTT4=
EXTT5=
EXTT6=
EXTT7=
PLAYORDER=
